<svg width="1024" height="1024" viewBox="0 0 1024 1024" fill="none" xmlns="http://www.w3.org/2000/svg">
  <defs>
    <radialGradient id="bg" cx="0" cy="0" r="1" gradientUnits="userSpaceOnUse" gradientTransform="translate(512 120) rotate(90) scale(820 980)">
      <stop offset="0%" stop-color="#0A101F"/>
      <stop offset="100%" stop-color="#03050A"/>
    </radialGradient>
    <linearGradient id="staffCore" x1="512" y1="120" x2="512" y2="920" gradientUnits="userSpaceOnUse">
      <stop offset="0%" stop-color="#7DD3FC"/>
      <stop offset="45%" stop-color="#38BDF8"/>
      <stop offset="100%" stop-color="#2563EB"/>
    </linearGradient>
    <linearGradient id="snakeGrad" x1="320" y1="240" x2="704" y2="820" gradientUnits="userSpaceOnUse">
      <stop offset="0%" stop-color="#A5F3FC"/>
      <stop offset="50%" stop-color="#22D3EE"/>
      <stop offset="100%" stop-color="#3B82F6"/>
    </linearGradient>
    <linearGradient id="wingGrad" x1="250" y1="170" x2="774" y2="260" gradientUnits="userSpaceOnUse">
      <stop offset="0%" stop-color="#E0F2FE" stop-opacity="0.95"/>
      <stop offset="45%" stop-color="#7DD3FC" stop-opacity="0.95"/>
      <stop offset="100%" stop-color="#3B82F6" stop-opacity="0.92"/>
    </linearGradient>
    <linearGradient id="orbGrad" x1="452" y1="92" x2="572" y2="212" gradientUnits="userSpaceOnUse">
      <stop offset="0%" stop-color="#E0F2FE"/>
      <stop offset="50%" stop-color="#67E8F9"/>
      <stop offset="100%" stop-color="#2563EB"/>
    </linearGradient>
    <filter id="softGlow" x="-50%" y="-50%" width="200%" height="200%">
      <feGaussianBlur stdDeviation="12" result="blur"/>
      <feMerge>
        <feMergeNode in="blur"/>
        <feMergeNode in="SourceGraphic"/>
      </feMerge>
    </filter>
    <filter id="bigGlow" x="-50%" y="-50%" width="200%" height="200%">
      <feGaussianBlur stdDeviation="24" result="blur"/>
      <feColorMatrix in="blur" type="matrix" values="1 0 0 0 0 0 1 0 0 0.2 0 0 1 0 0.55 0 0 0 0.75 0"/>
      <feMerge>
        <feMergeNode in="blur"/>
        <feMergeNode in="SourceGraphic"/>
      </feMerge>
    </filter>
    <clipPath id="shieldClip">
      <rect x="92" y="92" width="840" height="840" rx="220"/>
    </clipPath>
  </defs>
  <rect width="1024" height="1024" rx="220" fill="url(#bg)"/>
  <circle cx="512" cy="512" r="315" fill="#0EA5E9" opacity="0.08" filter="url(#bigGlow)"/>
  <circle cx="512" cy="240" r="125" fill="#67E8F9" opacity="0.12" filter="url(#bigGlow)"/>
  <rect x="96" y="96" width="832" height="832" rx="216" stroke="url(#wingGrad)" stroke-opacity="0.16" stroke-width="2"/>
  <rect x="122" y="122" width="780" height="780" rx="190" stroke="#E2E8F0" stroke-opacity="0.05" stroke-width="1"/>
  <g clip-path="url(#shieldClip)">
    <g filter="url(#softGlow)" opacity="0.96">
      <path d="M477 205C440 179 404 168 359 169C312 171 267 190 222 226C258 230 291 243 325 264C353 281 379 301 410 331L442 304C422 283 401 267 379 253C415 252 447 242 477 205Z" fill="url(#wingGrad)"/>
      <path d="M430 252C391 232 356 224 317 225C286 226 254 234 220 251C257 257 291 269 323 290C347 306 371 327 394 353L419 333C398 307 379 286 356 270C384 269 410 263 430 252Z" fill="url(#wingGrad)" opacity="0.7"/>
      <path d="M394 295C359 281 327 279 289 284C265 287 242 294 217 306C247 310 276 320 302 335C324 348 345 366 366 388L386 372C369 352 352 336 331 321C356 319 377 309 394 295Z" fill="url(#wingGrad)" opacity="0.45"/>
      <path d="M547 205C584 179 620 168 665 169C712 171 757 190 802 226C766 230 733 243 699 264C671 281 645 301 614 331L582 304C602 283 623 267 645 253C609 252 577 242 547 205Z" fill="url(#wingGrad)"/>
      <path d="M594 252C633 232 668 224 707 225C738 226 770 234 804 251C767 257 733 269 701 290C677 306 653 327 630 353L605 333C626 307 645 286 668 270C640 269 614 263 594 252Z" fill="url(#wingGrad)" opacity="0.7"/>
      <path d="M630 295C665 281 697 279 735 284C759 287 782 294 807 306C777 310 748 320 722 335C700 348 679 366 658 388L638 372C655 352 672 336 693 321C668 319 647 309 630 295Z" fill="url(#wingGrad)" opacity="0.45"/>
    </g>
    <g filter="url(#bigGlow)">
      <circle cx="512" cy="170" r="48" fill="url(#orbGrad)"/>
      <circle cx="512" cy="170" r="24" fill="#E0F2FE" fill-opacity="0.78"/>
    </g>
    <path d="M512 118L540 180H484L512 118Z" fill="#E0F2FE" fill-opacity="0.9" filter="url(#softGlow)"/>
    <g filter="url(#softGlow)">
      <rect x="491" y="188" width="42" height="646" rx="21" fill="url(#staffCore)"/>
      <rect x="499" y="205" width="26" height="612" rx="13" fill="#E0F2FE" fill-opacity="0.14"/>
      <rect x="480" y="820" width="64" height="78" rx="24" fill="url(#staffCore)"/>
      <path d="M470 898H554" stroke="#7DD3FC" stroke-width="10" stroke-linecap="round" opacity="0.9"/>
    </g>
    <circle cx="512" cy="240" r="48" stroke="#7DD3FC" stroke-width="10" opacity="0.85" filter="url(#softGlow)"/>
    <g filter="url(#softGlow)">
      <path d="M454 264C384 291 351 334 352 387C353 446 402 469 452 493C503 517 551 539 551 601C551 659 512 693 455 717C404 739 372 773 373 822" stroke="url(#snakeGrad)" stroke-width="24" stroke-linecap="round" stroke-linejoin="round"/>
      <path d="M452 262C436 242 434 223 446 206C458 190 479 185 502 193C485 205 475 219 473 236C471 249 475 261 486 273" fill="none" stroke="url(#snakeGrad)" stroke-width="18" stroke-linecap="round" stroke-linejoin="round"/>
      <path d="M438 194C445 180 463 174 480 179C468 190 463 202 466 214Z" fill="#CFFAFE" opacity="0.9"/>
      <circle cx="468" cy="195" r="3.5" fill="#03050A"/>
    </g>
    <g filter="url(#softGlow)">
      <path d="M570 264C640 291 673 334 672 387C671 446 622 469 572 493C521 517 473 539 473 601C473 659 512 693 569 717C620 739 652 773 651 822" stroke="url(#snakeGrad)" stroke-width="24" stroke-linecap="round" stroke-linejoin="round"/>
      <path d="M572 262C588 242 590 223 578 206C566 190 545 185 522 193C539 205 549 219 551 236C553 249 549 261 538 273" fill="none" stroke="url(#snakeGrad)" stroke-width="18" stroke-linecap="round" stroke-linejoin="round"/>
      <path d="M586 194C579 180 561 174 544 179C556 190 561 202 558 214Z" fill="#CFFAFE" opacity="0.9"/>
      <circle cx="556" cy="195" r="3.5" fill="#03050A"/>
    </g>
    <g opacity="0.9" filter="url(#softGlow)">
      <path d="M468 431H556" stroke="#E0F2FE" stroke-opacity="0.18" stroke-width="6" stroke-linecap="round"/>
      <path d="M468 598H556" stroke="#E0F2FE" stroke-opacity="0.16" stroke-width="6" stroke-linecap="round"/>
      <path d="M480 748H544" stroke="#E0F2FE" stroke-opacity="0.14" stroke-width="6" stroke-linecap="round"/>
    </g>
    <g opacity="0.38">
      <path d="M232 746C286 802 357 841 447 858" stroke="#38BDF8" stroke-width="2" stroke-linecap="round"/>
      <path d="M792 746C738 802 667 841 577 858" stroke="#38BDF8" stroke-width="2" stroke-linecap="round"/>
      <circle cx="228" cy="742" r="6" fill="#67E8F9"/>
      <circle cx="796" cy="742" r="6" fill="#67E8F9"/>
    </g>
  </g>
</svg>
