<svg xmlns="http://www.w3.org/2000/svg" viewBox="0 0 120 120">
  <defs>
    <filter id="hudGlow" x="-20%" y="-20%" width="140%" height="140%">
      <feGaussianBlur stdDeviation="1.5" result="blur" />
      <feMerge>
        <feMergeNode in="blur" />
        <feMergeNode in="SourceGraphic" />
      </feMerge>
    </filter>
    <linearGradient id="starkGrad" x1="0%" y1="0%" x2="100%" y2="100%">
      <stop offset="0%" stop-color="#22d3ee" />
      <stop offset="100%" stop-color="#3b82f6" />
    </linearGradient>
  </defs>
  <g filter="url(#hudGlow)">
    <polygon points="60,4 66,12 60,20 54,12" fill="#22d3ee" />
    <line x1="60" y1="20" x2="60" y2="110" stroke="url(#starkGrad)" stroke-width="2.5" />
    <polygon points="60,116 63,110 57,110" fill="#3b82f6" />
    <path d="M 56 22 L 15 10 L 30 22 L 5 28 L 35 32 L 56 28" fill="none" stroke="#22d3ee" stroke-width="1.5" stroke-linejoin="round" />
    <line x1="56" y1="25" x2="20" y2="16" stroke="#22d3ee" stroke-width="0.5" opacity="0.6" />
    <path d="M 64 22 L 105 10 L 90 22 L 115 28 L 85 32 L 64 28" fill="none" stroke="#3b82f6" stroke-width="1.5" stroke-linejoin="round" />
    <line x1="64" y1="25" x2="100" y2="16" stroke="#3b82f6" stroke-width="0.5" opacity="0.6" />
    <path d="M 45 105 C 45 90, 75 90, 75 75 C 75 60, 45 60, 45 45 C 45 30, 75 30, 70 20" fill="none" stroke="#22d3ee" stroke-width="2" />
    <polygon points="70,20 78,14 74,24" fill="#22d3ee" />
    <path d="M 75 105 C 75 90, 45 90, 45 75 C 45 60, 75 60, 75 45 C 75 30, 45 30, 50 20" fill="none" stroke="#3b82f6" stroke-width="2" />
    <polygon points="50,20 42,14 46,24" fill="#3b82f6" />
    <circle cx="60" cy="90" r="3" fill="#0B0F19" stroke="#22d3ee" stroke-width="1.5" />
    <circle cx="60" cy="60" r="3" fill="#0B0F19" stroke="#3b82f6" stroke-width="1.5" />
    <circle cx="60" cy="33" r="3" fill="#0B0F19" stroke="url(#starkGrad)" stroke-width="1.5" />
  </g>
</svg>
